<?xml version="1.0" encoding="UTF-8"?>
<svg id="Capa_1" data-name="Capa 1" xmlns="http://www.w3.org/2000/svg" viewBox="0 0 42.2 40.45">
  <defs>
    <style>
      .cls-1 {
        fill: #376599;
      }

      .cls-2 {
        fill: #37aee4;
      }
    </style>
  </defs>
  <g id="ISOTIPO_SMALL">
    <g id="ISOTIPO_SIGMA">
      <g id="ISOTIPIO_LOOP_RIGTH">
        <path class="cls-2" d="M37.82,20.27c0,10.43-8.48,18.91-18.91,18.91S0,30.7,0,20.27C0,9.85,8.48,1.36,18.91,1.36s18.91,8.48,18.91,18.91ZM31.77,20.27c0-7.09-5.77-12.86-12.86-12.86s-12.86,5.77-12.86,12.86,5.77,12.86,12.86,12.86c7.09,0,12.86-5.77,12.86-12.86Z"/>
      </g>
      <g id="ISOTIPO_LOOP_LEFT">
        <path class="cls-1" d="M6.05,20.27c0,7.09,5.77,12.86,12.86,12.86.32,0,.64-.02.96-.04v6.07c-.32.02-.64.02-.96.02C8.48,39.18,0,30.7,0,20.27,0,9.85,8.48,1.36,18.91,1.36c.88,0,1.75.06,2.6.18l-2.61,5.87c-7.08,0-12.84,5.77-12.84,12.86Z"/>
      </g>
      <polygon id="ISOTIPO_FLECHA_LEFT" class="cls-2" points="20.39 31.35 15.29 35.9 20.39 40.45 20.39 31.35"/>
      <polygon id="ISOTIPO_FLECHA_RIGTH" class="cls-1" points="42.2 4.55 37.82 9.1 37.82 7.41 18.75 7.41 18.75 1.36 37.82 1.36 37.82 0 42.2 4.55"/>
    </g>
  </g>
</svg>
